<svg width="1376" height="637" viewBox="0 0 1376 637" fill="none" xmlns="http://www.w3.org/2000/svg">
<path d="M884.15 405H1308L1230.85 540H807L884.15 405Z" fill="black"/>
<path d="M38.5727 501.918L250.485 134.876L328.718 269.124L116.806 636.166L38.5727 501.918Z" fill="black"/>
<path d="M328.5 269H484L405.939 405H250L328.5 269Z" fill="black"/>
<path d="M483.85 0H60L137.15 135H561L483.85 0Z" fill="black"/>
<path d="M685.979 329.484L797.734 134.876L951.878 134.876L840.124 329.484L685.979 329.484Z" fill="black"/>
<path d="M559.405 405L638.199 268.144L560.738 134.876L405.629 405L559.405 405Z" fill="black"/>
<path d="M840.123 329.485L884.44 404.629L728.276 404.629L685.979 329.484L840.123 329.485Z" fill="black"/>
<path d="M1156.2 135H1376L1298.8 270H1079L1156.2 135Z" fill="black"/>
<path d="M874.982 0H1232L1154.93 135H798L874.982 0Z" fill="black"/>
<path d="M1231 270L1308 405H1154L1231 270Z" fill="black"/>
</svg>
